# xmcd
#
# Track frame offsets:
#	150
#	15152
#	44743
#	64519
#	78034
#	90671
#	108418
#	125897
#	141537
#	162578
#	222571
#	236218
#
# Disc length: 3418 seconds
#
# Revision: 1
# Processed by: cddbd v1.5.1PL2 Copyright (c) Steve Scherf et al.
# Submitted via: audiograbber 1.82.01
#
DISCID=ad0d580c
DTITLE=Αλέκος Δήμου - Τ'Αραβανίτικα
DYEAR=1900
DGENRE=
TTITLE0=Σκόβα νιε μενατε ατιέ
TTITLE1=Τσέκα ρούγα δε γκεμόν
TTITLE2=Γκίγκιουνι τσουμπέ νιε θάμα
TTITLE3=Τρε παπόρ ουγκρέν εβάν
TTITLE4=Τσάιτα βούτσε ζεν μοι μαμ
TTITLE5=Λίτσε μόι Λίτσε
TTITLE6=Νιε βάιζε νιε κοπήλιε
TTITLE7=Κους κ'ντόν ναγορά κοκε μεντ νο κουκό
TTITLE8=Δημητρού
TTITLE9=Νιε δραγάτ χαστιανίτ
TTITLE10=Τσιοπάν
TTITLE11=Αχ μοι βάιζε μπουκουράνα
EXTD=
EXTT0=
EXTT1=
EXTT2=
EXTT3=
EXTT4=
EXTT5=
EXTT6=
EXTT7=
EXTT8=
EXTT9=
EXTT10=
EXTT11=
PLAYORDER=
